<?xml version="1.0" standalone="no"?><!DOCTYPE svg PUBLIC "-//W3C//DTD SVG 1.1//EN" "http://www.w3.org/Graphics/SVG/1.1/DTD/svg11.dtd"><svg t="1782319396057" class="icon" viewBox="0 0 1024 1024" version="1.1" xmlns="http://www.w3.org/2000/svg" p-id="14527" xmlns:xlink="http://www.w3.org/1999/xlink" width="200" height="200"><path d="M86.016 86.016h507.7v84.582H85.913z" p-id="14528"></path><path d="M551.424 1.331c28.16 0 42.291 14.131 42.291 42.291v169.37c0 28.262-14.131 42.291-42.291 42.291-28.262 0-42.291-14.029-42.291-42.291V43.622c0-28.16 14.029-42.29 42.291-42.29z m-507.802 0c28.263 0 42.394 14.029 42.394 42.291v169.37c0 28.262-14.029 42.291-42.291 42.291-28.16 0-42.291-14.029-42.291-42.291V43.622C1.33 15.462 15.36 1.332 43.622 1.332z m253.85 84.685c28.262 0 42.394 14.029 42.394 42.291v423.117c0 28.16-14.132 42.291-42.394 42.291-28.16 0-42.291-14.131-42.291-42.291V128.307c0-28.262 14.131-42.393 42.291-42.393zM43.622 932.25h930.919c28.262 0 42.291 14.13 42.291 42.29 0 28.263-14.029 42.292-42.291 42.292H43.725c-28.263 0-42.394-14.029-42.394-42.291 0-28.16 14.131-42.291 42.291-42.291z m0-253.952h930.919c28.262 0 42.291 14.13 42.291 42.393 0 28.16-14.029 42.291-42.291 42.291H43.725c-28.263 0-42.394-14.13-42.394-42.29 0-28.263 14.131-42.394 42.291-42.394z m592.384-253.85h338.535c28.262 0 42.291 14.131 42.291 42.291 0 28.263-14.029 42.394-42.291 42.394H636.006c-28.16 0-42.29-14.131-42.29-42.394 0-28.16 14.13-42.291 42.29-42.291z m169.268-253.85H974.54c28.262 0 42.291 14.132 42.291 42.292 0 28.262-14.029 42.29-42.291 42.29H805.274c-28.16 0-42.292-14.028-42.292-42.29 0-28.16 14.132-42.292 42.292-42.292z" p-id="14529"></path></svg>