<?xml version="1.0" standalone="no"?><!DOCTYPE svg PUBLIC "-//W3C//DTD SVG 1.1//EN" "http://www.w3.org/Graphics/SVG/1.1/DTD/svg11.dtd"><svg t="1782318543768" class="icon" viewBox="0 0 1024 1024" version="1.1" xmlns="http://www.w3.org/2000/svg" p-id="4970" xmlns:xlink="http://www.w3.org/1999/xlink" width="200" height="200"><path d="M524.8 209.92a10.24 10.24 0 0 1 10.24 10.24v51.2a10.24 10.24 0 0 1-10.24 10.24h-320v430.08h94.72v105.103L419.128 711.68H814.08V581.12a10.24 10.24 0 0 1 10.24-10.24h51.2a10.24 10.24 0 0 1 10.24 10.24v140.8c0 33.93-27.51 61.44-61.44 61.44H446.147L295.839 915.456a40.96 40.96 0 0 1-56.858-2.693l-0.947-1.04a40.96 40.96 0 0 1-10.158-25.384l-0.036-1.654V783.36h-33.28c-33.93 0-61.44-27.51-61.44-61.44V271.36c0-33.93 27.51-61.44 61.44-61.44H524.8z m-94.72 332.8a10.24 10.24 0 0 1 10.24 10.24v51.2a10.24 10.24 0 0 1-10.24 10.24H261.12a10.24 10.24 0 0 1-10.24-10.24v-51.2a10.24 10.24 0 0 1 10.24-10.24h168.96z m348.16-368.64a10.24 10.24 0 0 1 10.24 10.24l-0.005 128H916.48a10.24 10.24 0 0 1 10.24 10.24v51.2A10.24 10.24 0 0 1 916.48 384H788.475l0.005 128a10.24 10.24 0 0 1-10.24 10.24h-51.2A10.24 10.24 0 0 1 716.8 512l-0.005-128H588.8a10.24 10.24 0 0 1-10.24-10.24v-51.2a10.24 10.24 0 0 1 10.24-10.24h127.995l0.005-128a10.24 10.24 0 0 1 10.24-10.24h51.2z m-230.4 230.4a10.24 10.24 0 0 1 10.24 10.24v51.2a10.24 10.24 0 0 1-10.24 10.24H261.12a10.24 10.24 0 0 1-10.24-10.24v-51.2a10.24 10.24 0 0 1 10.24-10.24h286.72z" p-id="4971"></path></svg>